<?xml version="1.0" encoding="UTF-8"?>
<svg version="1.1" xmlns="http://www.w3.org/2000/svg" width="48" height="48">
<path d="M0 0 C15.84 0 31.68 0 48 0 C48 15.84 48 31.68 48 48 C32.16 48 16.32 48 0 48 C0 32.16 0 16.32 0 0 Z " fill="#1C153F" transform="translate(0,0)"/>
<path d="M0 0 C-0.45822468 3.46941546 -0.89131683 6.67395049 -2 10 C1.3 10 4.6 10 8 10 C8.88671875 12.07421875 8.88671875 12.07421875 9 15 C7.28130584 17.61601695 5.07704766 19.66751663 2.8125 21.8125 C2.22146484 22.40998047 1.63042969 23.00746094 1.02148438 23.62304688 C-3.46551786 28 -3.46551786 28 -8 28 C-7.54177532 24.53058454 -7.10868317 21.32604951 -6 18 C-9.3 18 -12.6 18 -16 18 C-16.88671875 15.92578125 -16.88671875 15.92578125 -17 13 C-15.28130584 10.38398305 -13.07704766 8.33248337 -10.8125 6.1875 C-9.92594727 5.2912793 -9.92594727 5.2912793 -9.02148438 4.37695312 C-4.53448214 0 -4.53448214 0 0 0 Z " fill="#7844CF" transform="translate(30,10)"/>
<path d="M0 0 C1 3 1 3 1 7 C4.3 7.33 7.6 7.66 11 8 C4.71428571 15.57142857 4.71428571 15.57142857 1 18 C1 15.69 1 13.38 1 11 C-2.3 10.67 -5.6 10.34 -9 10 C-2.97321429 2.90178571 -2.97321429 2.90178571 0 0 Z " fill="#211747" transform="translate(25,15)"/>
<path d="M0 0 C0.66 0.33 1.32 0.66 2 1 C1.34 1.66 0.68 2.32 0 3 C0.33 3.66 0.66 4.32 1 5 C0.175 5.53625 -0.65 6.0725 -1.5 6.625 C-5.4540456 9.25472411 -9.22311074 12.124196 -13 15 C-11.38989473 10.92623969 -8.46177729 8.23492931 -5.375 5.25 C-4.859375 4.74339844 -4.34375 4.23679687 -3.8125 3.71484375 C-2.54616661 2.47196098 -1.2736856 1.23534724 0 0 Z " fill="#7040C3" transform="translate(26,10)"/>
</svg>
